<?xml version="1.0" encoding="utf-8"?>
<!-- Generator: Adobe Illustrator 18.0.0, SVG Export Plug-In . SVG Version: 6.00 Build 0)  -->
<!DOCTYPE svg PUBLIC "-//W3C//DTD SVG 1.1//EN" "http://www.w3.org/Graphics/SVG/1.1/DTD/svg11.dtd">
<svg version="1.1" id="Layer_1" xmlns="http://www.w3.org/2000/svg" xmlns:xlink="http://www.w3.org/1999/xlink" x="0px" y="0px"
	 viewBox="0 0 803.2 134.4" enable-background="new 0 0 803.2 134.4" xml:space="preserve">
<g>
	<g>
		<path fill="#00AEEF" d="M208.4,134.4c-8.7,0-16.1-3-22.2-9.2c-6.1-6.1-9.2-13.5-9.2-22.1V31.6c0-8.7,3.1-16.1,9.2-22.2
			c6.1-6.1,13.5-9.2,22.2-9.2c8.7,0,16.1,3.1,22.2,9.2c6.1,6.1,9.1,13.5,9.1,22.2v15h-20.5V31.2c0-3.1-1.1-5.8-3.3-8.1
			c-2.2-2.2-4.9-3.3-8.1-3.3c-3.1,0-5.8,1.1-8,3.3c-2.2,2.2-3.3,4.9-3.3,8.1v71.7c0,3.1,1.1,5.8,3.3,8s4.9,3.3,8,3.3
			c3.1,0,5.8-1.1,8.1-3.3c2.2-2.2,3.3-4.9,3.3-8V84.8h20.5v18.3c0,8.7-3.1,16.1-9.2,22.2C224.4,131.4,217,134.4,208.4,134.4z"/>
		<path fill="#00AEEF" d="M316.5,134.2c-8.7,0-16.1-3-22.2-9.1s-9.1-13.4-9.1-22.1V0h19.3v102.8c0,3.1,1.1,5.8,3.3,8
			c2.2,2.2,4.9,3.3,8.1,3.3c3.1,0,5.8-1.1,8-3.3c2.2-2.2,3.3-4.9,3.3-8V0h20.6v103c0,8.8-3.1,16.2-9.2,22.2
			C332.6,131.2,325.2,134.2,316.5,134.2z"/>
		<path fill="#00AEEF" d="M414.7,132.7h-19.8V0h28.4l18.4,95.8L459.4,0h27.3v132.7h-19.8V50.3l-17.1,82.4h-15.9l-19.1-82.2V132.7z"
			/>
		<path fill="#00AEEF" d="M533.8,132.7V0H590v21.4h-36.5v35.8h26.7v19.9h-26.7v35.8H590v19.9H533.8z"/>
		<path fill="#00AEEF" d="M654.1,21.5h-21V0.1h61.7v21.4h-20.9v111.2h-19.8V21.5z"/>
		<path fill="#00AEEF" d="M803.2,100.1c0.1,9.1-2.2,16.9-7.1,23.4c-3.2,4.4-7.7,7.5-13.6,9.3c-3.1,1-6.8,1.5-11,1.5
			c-7.7,0-14.2-1.9-19.2-5.8c-4.3-3.1-7.6-7.4-10.1-12.8c-2.5-5.4-3.9-11.6-4.3-18.6l18.8-1.4c0.8,7.6,2.9,13.2,6.1,16.6
			c2.4,2.6,5.1,3.8,8.2,3.7c4.3-0.1,7.8-2.3,10.4-6.4c1.3-2,2-4.9,2-8.7c0-5.4-2.5-10.9-7.4-16.2c-3.9-3.7-9.8-9.2-17.6-16.6
			c-6.6-6.4-11.2-12-13.9-17.1c-2.9-5.7-4.4-11.8-4.4-18.4c0-11.9,4-21,12-27.1C756.9,1.8,763,0,770.3,0c7,0,13.1,1.6,18.1,4.7
			c3.9,2.4,7.1,5.9,9.5,10.2c2.4,4.4,3.9,9.4,4.3,15.2l-18.9,3.5c-0.6-5.4-2.1-9.6-4.6-12.5c-1.8-2.2-4.4-3.2-7.8-3.2
			c-3.6,0-6.4,1.6-8.3,4.8c-1.5,2.6-2.3,5.8-2.3,9.6c0,6,2.6,12.1,7.7,18.3c2,2.4,4.9,5.2,8.8,8.4c4.6,3.8,7.6,6.5,9.1,8.1
			c4.9,4.9,8.6,9.7,11.3,14.4c1.3,2.2,2.3,4.3,3,6.2C802.1,92.2,803.1,96.4,803.2,100.1z"/>
	</g>
	<circle fill-rule="evenodd" clip-rule="evenodd" fill="#FFF200" cx="65.8" cy="66" r="65.8"/>
</g>
</svg>
